<mxfile host="app.diagrams.net" modified="2021-05-16T06:03:16.123Z" agent="5.0 (Windows NT 10.0; Win64; x64) AppleWebKit/537.36 (KHTML, like Gecko) Chrome/90.0.4430.212 Safari/537.36" etag="y-FTEZoBoS4jLpnPpfB3" version="14.6.13" type="github">
  <diagram id="Ix3ZsL8bE7lM5L0QiAnv" name="Page-1">
    <mxGraphModel dx="1340" dy="1018" grid="1" gridSize="10" guides="1" tooltips="1" connect="1" arrows="1" fold="1" page="1" pageScale="1" pageWidth="827" pageHeight="1169" math="0" shadow="0">
      <root>
        <mxCell id="0" />
        <mxCell id="1" parent="0" />
        <mxCell id="cRqUA_CPMnJ-VIHzW4Qc-1" value="income&amp;gt;20,000" style="rhombus;whiteSpace=wrap;html=1;" vertex="1" parent="1">
          <mxGeometry x="100" y="80" width="80" height="80" as="geometry" />
        </mxCell>
        <mxCell id="cRqUA_CPMnJ-VIHzW4Qc-2" value="" style="endArrow=classic;html=1;entryX=0.5;entryY=0;entryDx=0;entryDy=0;" edge="1" parent="1" target="cRqUA_CPMnJ-VIHzW4Qc-4">
          <mxGeometry relative="1" as="geometry">
            <mxPoint x="140" y="160" as="sourcePoint" />
            <mxPoint x="140" y="200" as="targetPoint" />
          </mxGeometry>
        </mxCell>
        <mxCell id="cRqUA_CPMnJ-VIHzW4Qc-3" value="True" style="edgeLabel;resizable=0;html=1;align=center;verticalAlign=middle;" connectable="0" vertex="1" parent="cRqUA_CPMnJ-VIHzW4Qc-2">
          <mxGeometry relative="1" as="geometry" />
        </mxCell>
        <mxCell id="cRqUA_CPMnJ-VIHzW4Qc-4" value="content with life" style="rhombus;whiteSpace=wrap;html=1;" vertex="1" parent="1">
          <mxGeometry x="100" y="230" width="80" height="80" as="geometry" />
        </mxCell>
        <mxCell id="cRqUA_CPMnJ-VIHzW4Qc-5" value="" style="endArrow=classic;html=1;" edge="1" parent="1">
          <mxGeometry relative="1" as="geometry">
            <mxPoint x="139.5" y="310" as="sourcePoint" />
            <mxPoint x="139.5" y="350" as="targetPoint" />
          </mxGeometry>
        </mxCell>
        <mxCell id="cRqUA_CPMnJ-VIHzW4Qc-6" value="True" style="edgeLabel;resizable=0;html=1;align=center;verticalAlign=middle;" connectable="0" vertex="1" parent="cRqUA_CPMnJ-VIHzW4Qc-5">
          <mxGeometry relative="1" as="geometry" />
        </mxCell>
        <mxCell id="cRqUA_CPMnJ-VIHzW4Qc-8" value="" style="endArrow=classic;html=1;entryX=0;entryY=0.5;entryDx=0;entryDy=0;" edge="1" parent="1" target="cRqUA_CPMnJ-VIHzW4Qc-10">
          <mxGeometry relative="1" as="geometry">
            <mxPoint x="180" y="269.5" as="sourcePoint" />
            <mxPoint x="280" y="269.5" as="targetPoint" />
          </mxGeometry>
        </mxCell>
        <mxCell id="cRqUA_CPMnJ-VIHzW4Qc-9" value="False" style="edgeLabel;resizable=0;html=1;align=center;verticalAlign=middle;" connectable="0" vertex="1" parent="cRqUA_CPMnJ-VIHzW4Qc-8">
          <mxGeometry relative="1" as="geometry" />
        </mxCell>
        <mxCell id="cRqUA_CPMnJ-VIHzW4Qc-47" value="" style="edgeStyle=orthogonalEdgeStyle;rounded=0;orthogonalLoop=1;jettySize=auto;html=1;" edge="1" parent="1" source="cRqUA_CPMnJ-VIHzW4Qc-10" target="cRqUA_CPMnJ-VIHzW4Qc-20">
          <mxGeometry relative="1" as="geometry" />
        </mxCell>
        <mxCell id="cRqUA_CPMnJ-VIHzW4Qc-10" value="appreciate" style="rhombus;whiteSpace=wrap;html=1;" vertex="1" parent="1">
          <mxGeometry x="260" y="230" width="80" height="80" as="geometry" />
        </mxCell>
        <mxCell id="cRqUA_CPMnJ-VIHzW4Qc-11" value="" style="endArrow=classic;html=1;" edge="1" parent="1">
          <mxGeometry relative="1" as="geometry">
            <mxPoint x="300" y="310" as="sourcePoint" />
            <mxPoint x="300" y="350" as="targetPoint" />
          </mxGeometry>
        </mxCell>
        <mxCell id="cRqUA_CPMnJ-VIHzW4Qc-12" value="True" style="edgeLabel;resizable=0;html=1;align=center;verticalAlign=middle;" connectable="0" vertex="1" parent="cRqUA_CPMnJ-VIHzW4Qc-11">
          <mxGeometry relative="1" as="geometry" />
        </mxCell>
        <mxCell id="cRqUA_CPMnJ-VIHzW4Qc-14" value="" style="endArrow=classic;html=1;" edge="1" parent="1">
          <mxGeometry relative="1" as="geometry">
            <mxPoint x="340" y="269.5" as="sourcePoint" />
            <mxPoint x="440" y="269.5" as="targetPoint" />
          </mxGeometry>
        </mxCell>
        <mxCell id="cRqUA_CPMnJ-VIHzW4Qc-15" value="True" style="edgeLabel;resizable=0;html=1;align=center;verticalAlign=middle;" connectable="0" vertex="1" parent="cRqUA_CPMnJ-VIHzW4Qc-14">
          <mxGeometry relative="1" as="geometry" />
        </mxCell>
        <mxCell id="cRqUA_CPMnJ-VIHzW4Qc-19" value="I" style="ellipse;whiteSpace=wrap;html=1;aspect=fixed;" vertex="1" parent="1">
          <mxGeometry x="125" y="350" width="30" height="30" as="geometry" />
        </mxCell>
        <mxCell id="cRqUA_CPMnJ-VIHzW4Qc-20" value="I" style="ellipse;whiteSpace=wrap;html=1;aspect=fixed;" vertex="1" parent="1">
          <mxGeometry x="285" y="350" width="30" height="30" as="geometry" />
        </mxCell>
        <mxCell id="cRqUA_CPMnJ-VIHzW4Qc-21" value="C" style="ellipse;whiteSpace=wrap;html=1;aspect=fixed;" vertex="1" parent="1">
          <mxGeometry x="440" y="255" width="30" height="30" as="geometry" />
        </mxCell>
        <mxCell id="cRqUA_CPMnJ-VIHzW4Qc-22" value="" style="endArrow=classic;html=1;entryX=0;entryY=0.5;entryDx=0;entryDy=0;" edge="1" parent="1">
          <mxGeometry relative="1" as="geometry">
            <mxPoint x="180" y="119.5" as="sourcePoint" />
            <mxPoint x="260" y="120" as="targetPoint" />
          </mxGeometry>
        </mxCell>
        <mxCell id="cRqUA_CPMnJ-VIHzW4Qc-23" value="False" style="edgeLabel;resizable=0;html=1;align=center;verticalAlign=middle;" connectable="0" vertex="1" parent="cRqUA_CPMnJ-VIHzW4Qc-22">
          <mxGeometry relative="1" as="geometry" />
        </mxCell>
        <mxCell id="cRqUA_CPMnJ-VIHzW4Qc-24" value="income&amp;gt;10,000" style="rhombus;whiteSpace=wrap;html=1;" vertex="1" parent="1">
          <mxGeometry x="260" y="80" width="80" height="80" as="geometry" />
        </mxCell>
        <mxCell id="cRqUA_CPMnJ-VIHzW4Qc-25" value="" style="endArrow=classic;html=1;entryX=0;entryY=0.5;entryDx=0;entryDy=0;" edge="1" parent="1">
          <mxGeometry relative="1" as="geometry">
            <mxPoint x="340" y="119.5" as="sourcePoint" />
            <mxPoint x="420" y="120" as="targetPoint" />
          </mxGeometry>
        </mxCell>
        <mxCell id="cRqUA_CPMnJ-VIHzW4Qc-26" value="True" style="edgeLabel;resizable=0;html=1;align=center;verticalAlign=middle;" connectable="0" vertex="1" parent="cRqUA_CPMnJ-VIHzW4Qc-25">
          <mxGeometry relative="1" as="geometry" />
        </mxCell>
        <mxCell id="cRqUA_CPMnJ-VIHzW4Qc-27" value="" style="endArrow=classic;html=1;entryX=0.5;entryY=0;entryDx=0;entryDy=0;" edge="1" parent="1" target="cRqUA_CPMnJ-VIHzW4Qc-29">
          <mxGeometry relative="1" as="geometry">
            <mxPoint x="300" y="160" as="sourcePoint" />
            <mxPoint x="300" y="180" as="targetPoint" />
          </mxGeometry>
        </mxCell>
        <mxCell id="cRqUA_CPMnJ-VIHzW4Qc-28" value="False" style="edgeLabel;resizable=0;html=1;align=center;verticalAlign=middle;" connectable="0" vertex="1" parent="cRqUA_CPMnJ-VIHzW4Qc-27">
          <mxGeometry relative="1" as="geometry" />
        </mxCell>
        <mxCell id="cRqUA_CPMnJ-VIHzW4Qc-29" value="D" style="ellipse;whiteSpace=wrap;html=1;aspect=fixed;" vertex="1" parent="1">
          <mxGeometry x="285" y="190" width="30" height="30" as="geometry" />
        </mxCell>
        <mxCell id="cRqUA_CPMnJ-VIHzW4Qc-31" value="employed" style="rhombus;whiteSpace=wrap;html=1;" vertex="1" parent="1">
          <mxGeometry x="420" y="80" width="80" height="80" as="geometry" />
        </mxCell>
        <mxCell id="cRqUA_CPMnJ-VIHzW4Qc-32" value="" style="endArrow=classic;html=1;entryX=0.5;entryY=0;entryDx=0;entryDy=0;" edge="1" parent="1">
          <mxGeometry relative="1" as="geometry">
            <mxPoint x="459.5" y="160" as="sourcePoint" />
            <mxPoint x="459.5" y="190" as="targetPoint" />
          </mxGeometry>
        </mxCell>
        <mxCell id="cRqUA_CPMnJ-VIHzW4Qc-33" value="True" style="edgeLabel;resizable=0;html=1;align=center;verticalAlign=middle;" connectable="0" vertex="1" parent="cRqUA_CPMnJ-VIHzW4Qc-32">
          <mxGeometry relative="1" as="geometry" />
        </mxCell>
        <mxCell id="cRqUA_CPMnJ-VIHzW4Qc-34" value="I" style="ellipse;whiteSpace=wrap;html=1;aspect=fixed;" vertex="1" parent="1">
          <mxGeometry x="445" y="190" width="30" height="30" as="geometry" />
        </mxCell>
        <mxCell id="cRqUA_CPMnJ-VIHzW4Qc-35" value="" style="endArrow=classic;html=1;entryX=0;entryY=0.5;entryDx=0;entryDy=0;" edge="1" parent="1" target="cRqUA_CPMnJ-VIHzW4Qc-37">
          <mxGeometry relative="1" as="geometry">
            <mxPoint x="500" y="119.5" as="sourcePoint" />
            <mxPoint x="580" y="120" as="targetPoint" />
          </mxGeometry>
        </mxCell>
        <mxCell id="cRqUA_CPMnJ-VIHzW4Qc-36" value="False" style="edgeLabel;resizable=0;html=1;align=center;verticalAlign=middle;" connectable="0" vertex="1" parent="cRqUA_CPMnJ-VIHzW4Qc-35">
          <mxGeometry relative="1" as="geometry" />
        </mxCell>
        <mxCell id="cRqUA_CPMnJ-VIHzW4Qc-37" value="age&amp;gt;30" style="rhombus;whiteSpace=wrap;html=1;" vertex="1" parent="1">
          <mxGeometry x="570" y="80" width="80" height="80" as="geometry" />
        </mxCell>
        <mxCell id="cRqUA_CPMnJ-VIHzW4Qc-38" value="" style="endArrow=classic;html=1;" edge="1" parent="1">
          <mxGeometry relative="1" as="geometry">
            <mxPoint x="650" y="119.5" as="sourcePoint" />
            <mxPoint x="750" y="119.5" as="targetPoint" />
          </mxGeometry>
        </mxCell>
        <mxCell id="cRqUA_CPMnJ-VIHzW4Qc-39" value="True" style="edgeLabel;resizable=0;html=1;align=center;verticalAlign=middle;" connectable="0" vertex="1" parent="cRqUA_CPMnJ-VIHzW4Qc-38">
          <mxGeometry relative="1" as="geometry" />
        </mxCell>
        <mxCell id="cRqUA_CPMnJ-VIHzW4Qc-40" value="C" style="ellipse;whiteSpace=wrap;html=1;aspect=fixed;" vertex="1" parent="1">
          <mxGeometry x="750" y="105" width="30" height="30" as="geometry" />
        </mxCell>
        <mxCell id="cRqUA_CPMnJ-VIHzW4Qc-41" value="" style="endArrow=classic;html=1;entryX=0.5;entryY=0;entryDx=0;entryDy=0;" edge="1" parent="1">
          <mxGeometry relative="1" as="geometry">
            <mxPoint x="609.5" y="160" as="sourcePoint" />
            <mxPoint x="609.5" y="190" as="targetPoint" />
          </mxGeometry>
        </mxCell>
        <mxCell id="cRqUA_CPMnJ-VIHzW4Qc-42" value="False" style="edgeLabel;resizable=0;html=1;align=center;verticalAlign=middle;" connectable="0" vertex="1" parent="cRqUA_CPMnJ-VIHzW4Qc-41">
          <mxGeometry relative="1" as="geometry">
            <mxPoint x="1" y="-5" as="offset" />
          </mxGeometry>
        </mxCell>
        <mxCell id="cRqUA_CPMnJ-VIHzW4Qc-43" value="age&amp;gt;19" style="rhombus;whiteSpace=wrap;html=1;" vertex="1" parent="1">
          <mxGeometry x="570" y="190" width="80" height="80" as="geometry" />
        </mxCell>
        <mxCell id="cRqUA_CPMnJ-VIHzW4Qc-44" value="" style="endArrow=classic;html=1;" edge="1" parent="1">
          <mxGeometry relative="1" as="geometry">
            <mxPoint x="650" y="229" as="sourcePoint" />
            <mxPoint x="750" y="229" as="targetPoint" />
          </mxGeometry>
        </mxCell>
        <mxCell id="cRqUA_CPMnJ-VIHzW4Qc-45" value="False" style="edgeLabel;resizable=0;html=1;align=center;verticalAlign=middle;" connectable="0" vertex="1" parent="cRqUA_CPMnJ-VIHzW4Qc-44">
          <mxGeometry relative="1" as="geometry" />
        </mxCell>
        <mxCell id="cRqUA_CPMnJ-VIHzW4Qc-46" value="D" style="ellipse;whiteSpace=wrap;html=1;aspect=fixed;" vertex="1" parent="1">
          <mxGeometry x="750" y="215" width="30" height="30" as="geometry" />
        </mxCell>
        <mxCell id="cRqUA_CPMnJ-VIHzW4Qc-51" value="" style="endArrow=classic;html=1;" edge="1" parent="1">
          <mxGeometry relative="1" as="geometry">
            <mxPoint x="609.5" y="270" as="sourcePoint" />
            <mxPoint x="609.5" y="310" as="targetPoint" />
          </mxGeometry>
        </mxCell>
        <mxCell id="cRqUA_CPMnJ-VIHzW4Qc-52" value="True" style="edgeLabel;resizable=0;html=1;align=center;verticalAlign=middle;" connectable="0" vertex="1" parent="cRqUA_CPMnJ-VIHzW4Qc-51">
          <mxGeometry relative="1" as="geometry" />
        </mxCell>
        <mxCell id="cRqUA_CPMnJ-VIHzW4Qc-53" value="weekly online shopping" style="rhombus;whiteSpace=wrap;html=1;" vertex="1" parent="1">
          <mxGeometry x="570" y="310" width="80" height="80" as="geometry" />
        </mxCell>
        <mxCell id="cRqUA_CPMnJ-VIHzW4Qc-54" value="" style="endArrow=classic;html=1;" edge="1" parent="1">
          <mxGeometry relative="1" as="geometry">
            <mxPoint x="650" y="349" as="sourcePoint" />
            <mxPoint x="750" y="349" as="targetPoint" />
          </mxGeometry>
        </mxCell>
        <mxCell id="cRqUA_CPMnJ-VIHzW4Qc-55" value="True" style="edgeLabel;resizable=0;html=1;align=center;verticalAlign=middle;" connectable="0" vertex="1" parent="cRqUA_CPMnJ-VIHzW4Qc-54">
          <mxGeometry relative="1" as="geometry" />
        </mxCell>
        <mxCell id="cRqUA_CPMnJ-VIHzW4Qc-57" value="I" style="ellipse;whiteSpace=wrap;html=1;aspect=fixed;" vertex="1" parent="1">
          <mxGeometry x="750" y="335" width="30" height="30" as="geometry" />
        </mxCell>
        <mxCell id="cRqUA_CPMnJ-VIHzW4Qc-60" value="" style="endArrow=classic;html=1;" edge="1" parent="1">
          <mxGeometry relative="1" as="geometry">
            <mxPoint x="609.5" y="390" as="sourcePoint" />
            <mxPoint x="609.5" y="430" as="targetPoint" />
          </mxGeometry>
        </mxCell>
        <mxCell id="cRqUA_CPMnJ-VIHzW4Qc-61" value="False" style="edgeLabel;resizable=0;html=1;align=center;verticalAlign=middle;" connectable="0" vertex="1" parent="cRqUA_CPMnJ-VIHzW4Qc-60">
          <mxGeometry relative="1" as="geometry" />
        </mxCell>
        <mxCell id="cRqUA_CPMnJ-VIHzW4Qc-62" value="monthly online shopping" style="rhombus;whiteSpace=wrap;html=1;" vertex="1" parent="1">
          <mxGeometry x="570" y="430" width="80" height="80" as="geometry" />
        </mxCell>
        <mxCell id="cRqUA_CPMnJ-VIHzW4Qc-63" value="" style="endArrow=classic;html=1;" edge="1" parent="1">
          <mxGeometry relative="1" as="geometry">
            <mxPoint x="650" y="469.5" as="sourcePoint" />
            <mxPoint x="750" y="469.5" as="targetPoint" />
          </mxGeometry>
        </mxCell>
        <mxCell id="cRqUA_CPMnJ-VIHzW4Qc-64" value="True" style="edgeLabel;resizable=0;html=1;align=center;verticalAlign=middle;" connectable="0" vertex="1" parent="cRqUA_CPMnJ-VIHzW4Qc-63">
          <mxGeometry relative="1" as="geometry" />
        </mxCell>
        <mxCell id="cRqUA_CPMnJ-VIHzW4Qc-65" value="C" style="ellipse;whiteSpace=wrap;html=1;aspect=fixed;" vertex="1" parent="1">
          <mxGeometry x="750" y="455" width="30" height="30" as="geometry" />
        </mxCell>
        <mxCell id="cRqUA_CPMnJ-VIHzW4Qc-73" value="" style="endArrow=classic;html=1;" edge="1" parent="1">
          <mxGeometry relative="1" as="geometry">
            <mxPoint x="609.5" y="510" as="sourcePoint" />
            <mxPoint x="609.5" y="550" as="targetPoint" />
          </mxGeometry>
        </mxCell>
        <mxCell id="cRqUA_CPMnJ-VIHzW4Qc-74" value="False" style="edgeLabel;resizable=0;html=1;align=center;verticalAlign=middle;" connectable="0" vertex="1" parent="cRqUA_CPMnJ-VIHzW4Qc-73">
          <mxGeometry relative="1" as="geometry" />
        </mxCell>
        <mxCell id="cRqUA_CPMnJ-VIHzW4Qc-75" value="everyday online shopping" style="rhombus;whiteSpace=wrap;html=1;" vertex="1" parent="1">
          <mxGeometry x="570" y="550" width="80" height="80" as="geometry" />
        </mxCell>
        <mxCell id="cRqUA_CPMnJ-VIHzW4Qc-76" value="" style="endArrow=classic;html=1;" edge="1" parent="1">
          <mxGeometry relative="1" as="geometry">
            <mxPoint x="650" y="589.5" as="sourcePoint" />
            <mxPoint x="750" y="589.5" as="targetPoint" />
          </mxGeometry>
        </mxCell>
        <mxCell id="cRqUA_CPMnJ-VIHzW4Qc-77" value="False" style="edgeLabel;resizable=0;html=1;align=center;verticalAlign=middle;" connectable="0" vertex="1" parent="cRqUA_CPMnJ-VIHzW4Qc-76">
          <mxGeometry relative="1" as="geometry" />
        </mxCell>
        <mxCell id="cRqUA_CPMnJ-VIHzW4Qc-78" value="D" style="ellipse;whiteSpace=wrap;html=1;aspect=fixed;" vertex="1" parent="1">
          <mxGeometry x="750" y="575" width="30" height="30" as="geometry" />
        </mxCell>
        <mxCell id="cRqUA_CPMnJ-VIHzW4Qc-81" value="" style="endArrow=classic;html=1;" edge="1" parent="1">
          <mxGeometry relative="1" as="geometry">
            <mxPoint x="609.5" y="630" as="sourcePoint" />
            <mxPoint x="609.5" y="680" as="targetPoint" />
          </mxGeometry>
        </mxCell>
        <mxCell id="cRqUA_CPMnJ-VIHzW4Qc-82" value="True" style="edgeLabel;resizable=0;html=1;align=center;verticalAlign=middle;" connectable="0" vertex="1" parent="cRqUA_CPMnJ-VIHzW4Qc-81">
          <mxGeometry relative="1" as="geometry" />
        </mxCell>
        <mxCell id="cRqUA_CPMnJ-VIHzW4Qc-83" value="nmanager or higher" style="rhombus;whiteSpace=wrap;html=1;" vertex="1" parent="1">
          <mxGeometry x="570" y="680" width="80" height="80" as="geometry" />
        </mxCell>
        <mxCell id="cRqUA_CPMnJ-VIHzW4Qc-84" value="" style="endArrow=classic;html=1;" edge="1" parent="1">
          <mxGeometry relative="1" as="geometry">
            <mxPoint x="650" y="719.5" as="sourcePoint" />
            <mxPoint x="750" y="719.5" as="targetPoint" />
          </mxGeometry>
        </mxCell>
        <mxCell id="cRqUA_CPMnJ-VIHzW4Qc-85" value="True" style="edgeLabel;resizable=0;html=1;align=center;verticalAlign=middle;" connectable="0" vertex="1" parent="cRqUA_CPMnJ-VIHzW4Qc-84">
          <mxGeometry relative="1" as="geometry" />
        </mxCell>
        <mxCell id="cRqUA_CPMnJ-VIHzW4Qc-86" value="I" style="ellipse;whiteSpace=wrap;html=1;aspect=fixed;" vertex="1" parent="1">
          <mxGeometry x="750" y="705" width="30" height="30" as="geometry" />
        </mxCell>
        <mxCell id="cRqUA_CPMnJ-VIHzW4Qc-87" value="" style="endArrow=classic;html=1;" edge="1" parent="1">
          <mxGeometry relative="1" as="geometry">
            <mxPoint x="609.5" y="760" as="sourcePoint" />
            <mxPoint x="609.5" y="805" as="targetPoint" />
          </mxGeometry>
        </mxCell>
        <mxCell id="cRqUA_CPMnJ-VIHzW4Qc-88" value="False" style="edgeLabel;resizable=0;html=1;align=center;verticalAlign=middle;" connectable="0" vertex="1" parent="cRqUA_CPMnJ-VIHzW4Qc-87">
          <mxGeometry relative="1" as="geometry" />
        </mxCell>
        <mxCell id="cRqUA_CPMnJ-VIHzW4Qc-89" value="intern" style="rhombus;whiteSpace=wrap;html=1;" vertex="1" parent="1">
          <mxGeometry x="570" y="800" width="80" height="80" as="geometry" />
        </mxCell>
        <mxCell id="cRqUA_CPMnJ-VIHzW4Qc-90" value="" style="endArrow=classic;html=1;" edge="1" parent="1">
          <mxGeometry relative="1" as="geometry">
            <mxPoint x="650" y="839.5" as="sourcePoint" />
            <mxPoint x="750" y="839.5" as="targetPoint" />
          </mxGeometry>
        </mxCell>
        <mxCell id="cRqUA_CPMnJ-VIHzW4Qc-91" value="True" style="edgeLabel;resizable=0;html=1;align=center;verticalAlign=middle;" connectable="0" vertex="1" parent="cRqUA_CPMnJ-VIHzW4Qc-90">
          <mxGeometry relative="1" as="geometry" />
        </mxCell>
        <mxCell id="cRqUA_CPMnJ-VIHzW4Qc-92" value="D" style="ellipse;whiteSpace=wrap;html=1;aspect=fixed;" vertex="1" parent="1">
          <mxGeometry x="750" y="825" width="30" height="30" as="geometry" />
        </mxCell>
        <mxCell id="cRqUA_CPMnJ-VIHzW4Qc-93" value="" style="endArrow=classic;html=1;" edge="1" parent="1">
          <mxGeometry relative="1" as="geometry">
            <mxPoint x="609.5" y="880" as="sourcePoint" />
            <mxPoint x="609.5" y="930" as="targetPoint" />
          </mxGeometry>
        </mxCell>
        <mxCell id="cRqUA_CPMnJ-VIHzW4Qc-94" value="False" style="edgeLabel;resizable=0;html=1;align=center;verticalAlign=middle;" connectable="0" vertex="1" parent="cRqUA_CPMnJ-VIHzW4Qc-93">
          <mxGeometry relative="1" as="geometry" />
        </mxCell>
        <mxCell id="cRqUA_CPMnJ-VIHzW4Qc-95" value="Entry level" style="rhombus;whiteSpace=wrap;html=1;" vertex="1" parent="1">
          <mxGeometry x="570" y="930" width="80" height="80" as="geometry" />
        </mxCell>
        <mxCell id="cRqUA_CPMnJ-VIHzW4Qc-96" value="" style="endArrow=classic;html=1;" edge="1" parent="1">
          <mxGeometry relative="1" as="geometry">
            <mxPoint x="650" y="969.5" as="sourcePoint" />
            <mxPoint x="750" y="969.5" as="targetPoint" />
          </mxGeometry>
        </mxCell>
        <mxCell id="cRqUA_CPMnJ-VIHzW4Qc-97" value="False" style="edgeLabel;resizable=0;html=1;align=center;verticalAlign=middle;" connectable="0" vertex="1" parent="cRqUA_CPMnJ-VIHzW4Qc-96">
          <mxGeometry relative="1" as="geometry" />
        </mxCell>
        <mxCell id="cRqUA_CPMnJ-VIHzW4Qc-98" value="C" style="ellipse;whiteSpace=wrap;html=1;aspect=fixed;" vertex="1" parent="1">
          <mxGeometry x="750" y="955" width="30" height="30" as="geometry" />
        </mxCell>
        <mxCell id="cRqUA_CPMnJ-VIHzW4Qc-99" value="" style="endArrow=classic;html=1;" edge="1" parent="1">
          <mxGeometry relative="1" as="geometry">
            <mxPoint x="609.5" y="1010" as="sourcePoint" />
            <mxPoint x="609.5" y="1050" as="targetPoint" />
          </mxGeometry>
        </mxCell>
        <mxCell id="cRqUA_CPMnJ-VIHzW4Qc-100" value="True" style="edgeLabel;resizable=0;html=1;align=center;verticalAlign=middle;" connectable="0" vertex="1" parent="cRqUA_CPMnJ-VIHzW4Qc-99">
          <mxGeometry relative="1" as="geometry" />
        </mxCell>
        <mxCell id="cRqUA_CPMnJ-VIHzW4Qc-101" value="chilren&amp;gt;=2" style="rhombus;whiteSpace=wrap;html=1;" vertex="1" parent="1">
          <mxGeometry x="570" y="1050" width="80" height="80" as="geometry" />
        </mxCell>
        <mxCell id="cRqUA_CPMnJ-VIHzW4Qc-102" value="" style="endArrow=classic;html=1;" edge="1" parent="1">
          <mxGeometry relative="1" as="geometry">
            <mxPoint x="650" y="1089.5" as="sourcePoint" />
            <mxPoint x="750" y="1089.5" as="targetPoint" />
          </mxGeometry>
        </mxCell>
        <mxCell id="cRqUA_CPMnJ-VIHzW4Qc-103" value="True" style="edgeLabel;resizable=0;html=1;align=center;verticalAlign=middle;" connectable="0" vertex="1" parent="cRqUA_CPMnJ-VIHzW4Qc-102">
          <mxGeometry relative="1" as="geometry" />
        </mxCell>
        <mxCell id="cRqUA_CPMnJ-VIHzW4Qc-104" value="D" style="ellipse;whiteSpace=wrap;html=1;aspect=fixed;" vertex="1" parent="1">
          <mxGeometry x="750" y="1075" width="30" height="30" as="geometry" />
        </mxCell>
        <mxCell id="cRqUA_CPMnJ-VIHzW4Qc-105" value="" style="endArrow=classic;html=1;" edge="1" parent="1">
          <mxGeometry relative="1" as="geometry">
            <mxPoint x="610" y="1130" as="sourcePoint" />
            <mxPoint x="609.5" y="1180" as="targetPoint" />
          </mxGeometry>
        </mxCell>
        <mxCell id="cRqUA_CPMnJ-VIHzW4Qc-106" value="False" style="edgeLabel;resizable=0;html=1;align=center;verticalAlign=middle;" connectable="0" vertex="1" parent="cRqUA_CPMnJ-VIHzW4Qc-105">
          <mxGeometry relative="1" as="geometry" />
        </mxCell>
        <mxCell id="cRqUA_CPMnJ-VIHzW4Qc-107" value="chilren=1" style="rhombus;whiteSpace=wrap;html=1;" vertex="1" parent="1">
          <mxGeometry x="570" y="1180" width="80" height="80" as="geometry" />
        </mxCell>
        <mxCell id="cRqUA_CPMnJ-VIHzW4Qc-108" value="" style="endArrow=classic;html=1;" edge="1" parent="1">
          <mxGeometry relative="1" as="geometry">
            <mxPoint x="650" y="1219.5" as="sourcePoint" />
            <mxPoint x="750" y="1219.5" as="targetPoint" />
          </mxGeometry>
        </mxCell>
        <mxCell id="cRqUA_CPMnJ-VIHzW4Qc-109" value="True" style="edgeLabel;resizable=0;html=1;align=center;verticalAlign=middle;" connectable="0" vertex="1" parent="cRqUA_CPMnJ-VIHzW4Qc-108">
          <mxGeometry relative="1" as="geometry" />
        </mxCell>
        <mxCell id="cRqUA_CPMnJ-VIHzW4Qc-110" value="I" style="ellipse;whiteSpace=wrap;html=1;aspect=fixed;" vertex="1" parent="1">
          <mxGeometry x="750" y="1205" width="30" height="30" as="geometry" />
        </mxCell>
        <mxCell id="cRqUA_CPMnJ-VIHzW4Qc-126" value="" style="edgeStyle=orthogonalEdgeStyle;rounded=0;orthogonalLoop=1;jettySize=auto;html=1;" edge="1" parent="1" source="cRqUA_CPMnJ-VIHzW4Qc-112" target="cRqUA_CPMnJ-VIHzW4Qc-118">
          <mxGeometry relative="1" as="geometry" />
        </mxCell>
        <mxCell id="cRqUA_CPMnJ-VIHzW4Qc-112" value="high school" style="rhombus;whiteSpace=wrap;html=1;" vertex="1" parent="1">
          <mxGeometry x="570" y="1310" width="80" height="80" as="geometry" />
        </mxCell>
        <mxCell id="cRqUA_CPMnJ-VIHzW4Qc-113" value="" style="endArrow=classic;html=1;" edge="1" parent="1">
          <mxGeometry relative="1" as="geometry">
            <mxPoint x="610" y="1260" as="sourcePoint" />
            <mxPoint x="609.5" y="1310" as="targetPoint" />
          </mxGeometry>
        </mxCell>
        <mxCell id="cRqUA_CPMnJ-VIHzW4Qc-114" value="False" style="edgeLabel;resizable=0;html=1;align=center;verticalAlign=middle;" connectable="0" vertex="1" parent="cRqUA_CPMnJ-VIHzW4Qc-113">
          <mxGeometry relative="1" as="geometry" />
        </mxCell>
        <mxCell id="cRqUA_CPMnJ-VIHzW4Qc-115" value="" style="endArrow=classic;html=1;" edge="1" parent="1">
          <mxGeometry relative="1" as="geometry">
            <mxPoint x="650" y="1349.5" as="sourcePoint" />
            <mxPoint x="750" y="1349.5" as="targetPoint" />
          </mxGeometry>
        </mxCell>
        <mxCell id="cRqUA_CPMnJ-VIHzW4Qc-116" value="True" style="edgeLabel;resizable=0;html=1;align=center;verticalAlign=middle;" connectable="0" vertex="1" parent="cRqUA_CPMnJ-VIHzW4Qc-115">
          <mxGeometry relative="1" as="geometry" />
        </mxCell>
        <mxCell id="cRqUA_CPMnJ-VIHzW4Qc-117" value="D" style="ellipse;whiteSpace=wrap;html=1;aspect=fixed;" vertex="1" parent="1">
          <mxGeometry x="750" y="1335" width="30" height="30" as="geometry" />
        </mxCell>
        <mxCell id="cRqUA_CPMnJ-VIHzW4Qc-118" value="bachelor or higher" style="rhombus;whiteSpace=wrap;html=1;" vertex="1" parent="1">
          <mxGeometry x="570" y="1440" width="80" height="80" as="geometry" />
        </mxCell>
        <mxCell id="cRqUA_CPMnJ-VIHzW4Qc-121" value="" style="endArrow=classic;html=1;" edge="1" parent="1">
          <mxGeometry relative="1" as="geometry">
            <mxPoint x="610" y="1390" as="sourcePoint" />
            <mxPoint x="609.5" y="1440" as="targetPoint" />
          </mxGeometry>
        </mxCell>
        <mxCell id="cRqUA_CPMnJ-VIHzW4Qc-122" value="False" style="edgeLabel;resizable=0;html=1;align=center;verticalAlign=middle;" connectable="0" vertex="1" parent="cRqUA_CPMnJ-VIHzW4Qc-121">
          <mxGeometry relative="1" as="geometry" />
        </mxCell>
        <mxCell id="cRqUA_CPMnJ-VIHzW4Qc-123" value="" style="endArrow=classic;html=1;" edge="1" parent="1">
          <mxGeometry relative="1" as="geometry">
            <mxPoint x="650" y="1479.5" as="sourcePoint" />
            <mxPoint x="750" y="1479.5" as="targetPoint" />
          </mxGeometry>
        </mxCell>
        <mxCell id="cRqUA_CPMnJ-VIHzW4Qc-124" value="True" style="edgeLabel;resizable=0;html=1;align=center;verticalAlign=middle;" connectable="0" vertex="1" parent="cRqUA_CPMnJ-VIHzW4Qc-123">
          <mxGeometry relative="1" as="geometry" />
        </mxCell>
        <mxCell id="cRqUA_CPMnJ-VIHzW4Qc-125" value="I" style="ellipse;whiteSpace=wrap;html=1;aspect=fixed;" vertex="1" parent="1">
          <mxGeometry x="750" y="1465" width="30" height="30" as="geometry" />
        </mxCell>
        <mxCell id="cRqUA_CPMnJ-VIHzW4Qc-127" value="" style="endArrow=classic;html=1;" edge="1" parent="1">
          <mxGeometry relative="1" as="geometry">
            <mxPoint x="610" y="1520" as="sourcePoint" />
            <mxPoint x="610" y="1580" as="targetPoint" />
          </mxGeometry>
        </mxCell>
        <mxCell id="cRqUA_CPMnJ-VIHzW4Qc-128" value="False" style="edgeLabel;resizable=0;html=1;align=center;verticalAlign=middle;" connectable="0" vertex="1" parent="cRqUA_CPMnJ-VIHzW4Qc-127">
          <mxGeometry relative="1" as="geometry" />
        </mxCell>
        <mxCell id="cRqUA_CPMnJ-VIHzW4Qc-129" value="single" style="rhombus;whiteSpace=wrap;html=1;" vertex="1" parent="1">
          <mxGeometry x="570" y="1580" width="80" height="80" as="geometry" />
        </mxCell>
        <mxCell id="cRqUA_CPMnJ-VIHzW4Qc-130" value="" style="endArrow=classic;html=1;" edge="1" parent="1">
          <mxGeometry relative="1" as="geometry">
            <mxPoint x="650" y="1619.5" as="sourcePoint" />
            <mxPoint x="750" y="1619.5" as="targetPoint" />
          </mxGeometry>
        </mxCell>
        <mxCell id="cRqUA_CPMnJ-VIHzW4Qc-131" value="True" style="edgeLabel;resizable=0;html=1;align=center;verticalAlign=middle;" connectable="0" vertex="1" parent="cRqUA_CPMnJ-VIHzW4Qc-130">
          <mxGeometry relative="1" as="geometry" />
        </mxCell>
        <mxCell id="cRqUA_CPMnJ-VIHzW4Qc-132" value="C" style="ellipse;whiteSpace=wrap;html=1;aspect=fixed;" vertex="1" parent="1">
          <mxGeometry x="750" y="1605" width="30" height="30" as="geometry" />
        </mxCell>
        <mxCell id="cRqUA_CPMnJ-VIHzW4Qc-133" value="" style="endArrow=classic;html=1;" edge="1" parent="1">
          <mxGeometry relative="1" as="geometry">
            <mxPoint x="609.5" y="1660" as="sourcePoint" />
            <mxPoint x="609.5" y="1720" as="targetPoint" />
          </mxGeometry>
        </mxCell>
        <mxCell id="cRqUA_CPMnJ-VIHzW4Qc-134" value="False" style="edgeLabel;resizable=0;html=1;align=center;verticalAlign=middle;" connectable="0" vertex="1" parent="cRqUA_CPMnJ-VIHzW4Qc-133">
          <mxGeometry relative="1" as="geometry" />
        </mxCell>
        <mxCell id="cRqUA_CPMnJ-VIHzW4Qc-135" value="married" style="rhombus;whiteSpace=wrap;html=1;" vertex="1" parent="1">
          <mxGeometry x="570" y="1720" width="80" height="80" as="geometry" />
        </mxCell>
        <mxCell id="cRqUA_CPMnJ-VIHzW4Qc-136" value="" style="endArrow=classic;html=1;" edge="1" parent="1">
          <mxGeometry relative="1" as="geometry">
            <mxPoint x="650" y="1759.5" as="sourcePoint" />
            <mxPoint x="750" y="1759.5" as="targetPoint" />
          </mxGeometry>
        </mxCell>
        <mxCell id="cRqUA_CPMnJ-VIHzW4Qc-137" value="True" style="edgeLabel;resizable=0;html=1;align=center;verticalAlign=middle;" connectable="0" vertex="1" parent="cRqUA_CPMnJ-VIHzW4Qc-136">
          <mxGeometry relative="1" as="geometry" />
        </mxCell>
        <mxCell id="cRqUA_CPMnJ-VIHzW4Qc-138" value="D" style="ellipse;whiteSpace=wrap;html=1;aspect=fixed;" vertex="1" parent="1">
          <mxGeometry x="750" y="1745" width="30" height="30" as="geometry" />
        </mxCell>
        <mxCell id="cRqUA_CPMnJ-VIHzW4Qc-139" value="" style="endArrow=classic;html=1;" edge="1" parent="1">
          <mxGeometry relative="1" as="geometry">
            <mxPoint x="609.5" y="1800" as="sourcePoint" />
            <mxPoint x="609.5" y="1860" as="targetPoint" />
          </mxGeometry>
        </mxCell>
        <mxCell id="cRqUA_CPMnJ-VIHzW4Qc-140" value="False" style="edgeLabel;resizable=0;html=1;align=center;verticalAlign=middle;" connectable="0" vertex="1" parent="cRqUA_CPMnJ-VIHzW4Qc-139">
          <mxGeometry relative="1" as="geometry" />
        </mxCell>
        <mxCell id="cRqUA_CPMnJ-VIHzW4Qc-141" value="male" style="rhombus;whiteSpace=wrap;html=1;" vertex="1" parent="1">
          <mxGeometry x="570" y="1860" width="80" height="80" as="geometry" />
        </mxCell>
        <mxCell id="cRqUA_CPMnJ-VIHzW4Qc-142" value="" style="endArrow=classic;html=1;" edge="1" parent="1">
          <mxGeometry relative="1" as="geometry">
            <mxPoint x="609.5" y="1940" as="sourcePoint" />
            <mxPoint x="609.5" y="2000" as="targetPoint" />
          </mxGeometry>
        </mxCell>
        <mxCell id="cRqUA_CPMnJ-VIHzW4Qc-143" value="True" style="edgeLabel;resizable=0;html=1;align=center;verticalAlign=middle;" connectable="0" vertex="1" parent="cRqUA_CPMnJ-VIHzW4Qc-142">
          <mxGeometry relative="1" as="geometry" />
        </mxCell>
        <mxCell id="cRqUA_CPMnJ-VIHzW4Qc-144" value="online&amp;gt;5" style="rhombus;whiteSpace=wrap;html=1;" vertex="1" parent="1">
          <mxGeometry x="570" y="2000" width="80" height="80" as="geometry" />
        </mxCell>
        <mxCell id="cRqUA_CPMnJ-VIHzW4Qc-145" value="False" style="endArrow=classic;html=1;" edge="1" parent="1">
          <mxGeometry relative="1" as="geometry">
            <mxPoint x="650" y="1899.5" as="sourcePoint" />
            <mxPoint x="750" y="1899.5" as="targetPoint" />
          </mxGeometry>
        </mxCell>
        <mxCell id="cRqUA_CPMnJ-VIHzW4Qc-147" value="D" style="ellipse;whiteSpace=wrap;html=1;aspect=fixed;" vertex="1" parent="1">
          <mxGeometry x="750" y="1885" width="30" height="30" as="geometry" />
        </mxCell>
        <mxCell id="cRqUA_CPMnJ-VIHzW4Qc-148" value="True" style="endArrow=classic;html=1;" edge="1" parent="1">
          <mxGeometry relative="1" as="geometry">
            <mxPoint x="650" y="2039.5" as="sourcePoint" />
            <mxPoint x="750" y="2039.5" as="targetPoint" />
          </mxGeometry>
        </mxCell>
        <mxCell id="cRqUA_CPMnJ-VIHzW4Qc-149" value="D" style="ellipse;whiteSpace=wrap;html=1;aspect=fixed;" vertex="1" parent="1">
          <mxGeometry x="750" y="2025" width="30" height="30" as="geometry" />
        </mxCell>
        <mxCell id="cRqUA_CPMnJ-VIHzW4Qc-150" value="" style="endArrow=classic;html=1;" edge="1" parent="1">
          <mxGeometry relative="1" as="geometry">
            <mxPoint x="609.5" y="2080" as="sourcePoint" />
            <mxPoint x="609.5" y="2140" as="targetPoint" />
          </mxGeometry>
        </mxCell>
        <mxCell id="cRqUA_CPMnJ-VIHzW4Qc-151" value="False" style="edgeLabel;resizable=0;html=1;align=center;verticalAlign=middle;" connectable="0" vertex="1" parent="cRqUA_CPMnJ-VIHzW4Qc-150">
          <mxGeometry relative="1" as="geometry" />
        </mxCell>
        <mxCell id="cRqUA_CPMnJ-VIHzW4Qc-152" value="online&amp;gt;3" style="rhombus;whiteSpace=wrap;html=1;" vertex="1" parent="1">
          <mxGeometry x="570" y="2140" width="80" height="80" as="geometry" />
        </mxCell>
        <mxCell id="cRqUA_CPMnJ-VIHzW4Qc-153" value="True" style="endArrow=classic;html=1;" edge="1" parent="1">
          <mxGeometry relative="1" as="geometry">
            <mxPoint x="650" y="2179.5" as="sourcePoint" />
            <mxPoint x="750" y="2179.5" as="targetPoint" />
          </mxGeometry>
        </mxCell>
        <mxCell id="cRqUA_CPMnJ-VIHzW4Qc-154" value="C" style="ellipse;whiteSpace=wrap;html=1;aspect=fixed;" vertex="1" parent="1">
          <mxGeometry x="750" y="2165" width="30" height="30" as="geometry" />
        </mxCell>
        <mxCell id="cRqUA_CPMnJ-VIHzW4Qc-155" value="" style="endArrow=classic;html=1;" edge="1" parent="1">
          <mxGeometry relative="1" as="geometry">
            <mxPoint x="609.5" y="2220" as="sourcePoint" />
            <mxPoint x="609.5" y="2280" as="targetPoint" />
          </mxGeometry>
        </mxCell>
        <mxCell id="cRqUA_CPMnJ-VIHzW4Qc-156" value="False" style="edgeLabel;resizable=0;html=1;align=center;verticalAlign=middle;" connectable="0" vertex="1" parent="cRqUA_CPMnJ-VIHzW4Qc-155">
          <mxGeometry relative="1" as="geometry" />
        </mxCell>
        <mxCell id="cRqUA_CPMnJ-VIHzW4Qc-157" value="live in America&amp;nbsp;" style="rhombus;whiteSpace=wrap;html=1;" vertex="1" parent="1">
          <mxGeometry x="570" y="2280" width="80" height="80" as="geometry" />
        </mxCell>
        <mxCell id="cRqUA_CPMnJ-VIHzW4Qc-158" value="True" style="endArrow=classic;html=1;" edge="1" parent="1">
          <mxGeometry relative="1" as="geometry">
            <mxPoint x="650" y="2319.5" as="sourcePoint" />
            <mxPoint x="750" y="2319.5" as="targetPoint" />
          </mxGeometry>
        </mxCell>
        <mxCell id="cRqUA_CPMnJ-VIHzW4Qc-159" value="C" style="ellipse;whiteSpace=wrap;html=1;aspect=fixed;" vertex="1" parent="1">
          <mxGeometry x="750" y="2305" width="30" height="30" as="geometry" />
        </mxCell>
        <mxCell id="cRqUA_CPMnJ-VIHzW4Qc-168" value="" style="endArrow=classic;html=1;" edge="1" parent="1">
          <mxGeometry relative="1" as="geometry">
            <mxPoint x="609.5" y="2360" as="sourcePoint" />
            <mxPoint x="609.5" y="2420" as="targetPoint" />
          </mxGeometry>
        </mxCell>
        <mxCell id="cRqUA_CPMnJ-VIHzW4Qc-169" value="False" style="edgeLabel;resizable=0;html=1;align=center;verticalAlign=middle;" connectable="0" vertex="1" parent="cRqUA_CPMnJ-VIHzW4Qc-168">
          <mxGeometry relative="1" as="geometry" />
        </mxCell>
        <mxCell id="cRqUA_CPMnJ-VIHzW4Qc-170" value="live in Europa" style="rhombus;whiteSpace=wrap;html=1;" vertex="1" parent="1">
          <mxGeometry x="570" y="2420" width="80" height="80" as="geometry" />
        </mxCell>
        <mxCell id="cRqUA_CPMnJ-VIHzW4Qc-171" value="True" style="endArrow=classic;html=1;" edge="1" parent="1">
          <mxGeometry relative="1" as="geometry">
            <mxPoint x="650" y="2459.5" as="sourcePoint" />
            <mxPoint x="750" y="2459.5" as="targetPoint" />
          </mxGeometry>
        </mxCell>
        <mxCell id="cRqUA_CPMnJ-VIHzW4Qc-172" value="C" style="ellipse;whiteSpace=wrap;html=1;aspect=fixed;" vertex="1" parent="1">
          <mxGeometry x="750" y="2445" width="30" height="30" as="geometry" />
        </mxCell>
        <mxCell id="cRqUA_CPMnJ-VIHzW4Qc-173" value="" style="endArrow=classic;html=1;" edge="1" parent="1">
          <mxGeometry relative="1" as="geometry">
            <mxPoint x="609.5" y="2500" as="sourcePoint" />
            <mxPoint x="609.5" y="2560" as="targetPoint" />
          </mxGeometry>
        </mxCell>
        <mxCell id="cRqUA_CPMnJ-VIHzW4Qc-174" value="False" style="edgeLabel;resizable=0;html=1;align=center;verticalAlign=middle;" connectable="0" vertex="1" parent="cRqUA_CPMnJ-VIHzW4Qc-173">
          <mxGeometry relative="1" as="geometry" />
        </mxCell>
        <mxCell id="cRqUA_CPMnJ-VIHzW4Qc-175" value="live in Asia" style="rhombus;whiteSpace=wrap;html=1;" vertex="1" parent="1">
          <mxGeometry x="570" y="2560" width="80" height="80" as="geometry" />
        </mxCell>
        <mxCell id="cRqUA_CPMnJ-VIHzW4Qc-176" value="True" style="endArrow=classic;html=1;" edge="1" parent="1">
          <mxGeometry relative="1" as="geometry">
            <mxPoint x="650" y="2599.5" as="sourcePoint" />
            <mxPoint x="750" y="2599.5" as="targetPoint" />
          </mxGeometry>
        </mxCell>
        <mxCell id="cRqUA_CPMnJ-VIHzW4Qc-177" value="I" style="ellipse;whiteSpace=wrap;html=1;aspect=fixed;" vertex="1" parent="1">
          <mxGeometry x="750" y="2585" width="30" height="30" as="geometry" />
        </mxCell>
        <mxCell id="cRqUA_CPMnJ-VIHzW4Qc-179" value="" style="endArrow=classic;html=1;" edge="1" parent="1">
          <mxGeometry relative="1" as="geometry">
            <mxPoint x="609.5" y="2640" as="sourcePoint" />
            <mxPoint x="609.5" y="2700" as="targetPoint" />
          </mxGeometry>
        </mxCell>
        <mxCell id="cRqUA_CPMnJ-VIHzW4Qc-180" value="False" style="edgeLabel;resizable=0;html=1;align=center;verticalAlign=middle;" connectable="0" vertex="1" parent="cRqUA_CPMnJ-VIHzW4Qc-179">
          <mxGeometry relative="1" as="geometry" />
        </mxCell>
        <mxCell id="cRqUA_CPMnJ-VIHzW4Qc-181" value="C" style="ellipse;whiteSpace=wrap;html=1;aspect=fixed;" vertex="1" parent="1">
          <mxGeometry x="595" y="2700" width="30" height="30" as="geometry" />
        </mxCell>
      </root>
    </mxGraphModel>
  </diagram>
</mxfile>
